<?xml version="1.0" encoding="UTF-8" standalone="no"?>
<svg
   version="1.1"
   width="1600.5095"
   height="502.77777"
   viewBox="0 0 480.15286 150.83333"
   xmlns="http://www.w3.org/2000/svg">
   <g
      id="zero_core" style="fill:#fff;fill-opacity:0.7">
      <path
         d="m 444.77472,96.581334 h 14.73588 v 4.531326 h -14.73588 z m 0.42346,12.704656 h 16.72605 v 4.61603 H 439.69339 V 84.257814 h 21.63803 v 4.616026 h -16.13324 z" />
      <path
         d="M 396.44043,113.90202 V 84.257814 h 12.1952 q 3.93804,0 6.73277,1.270465 2.83708,1.270467 4.36148,3.642003 1.5244,2.371537 1.5244,5.6324 0,3.260862 -1.5244,5.632398 -1.5244,2.32919 -4.36148,3.59965 -2.79473,1.22812 -6.73277,1.22812 h -9.1464 l 2.45597,-2.49858 v 11.13775 z m 19.39376,0 -7.49497,-10.75661 h 5.88588 l 7.53732,10.75661 z m -13.88899,-10.54487 -2.45597,-2.62563 h 8.89233 q 3.64163,0 5.46244,-1.566905 1.86316,-1.566908 1.86316,-4.361933 0,-2.837375 -1.86316,-4.361934 -1.82081,-1.52456 -5.46244,-1.52456 h -8.89233 l 2.45597,-2.710326 z" />
      <path
         d="m 367.5382,114.32551 q -3.47225,0 -6.39402,-1.14342 -2.92176,-1.14342 -5.08134,-3.17616 -2.15956,-2.0751 -3.34521,-4.82778 -1.18564,-2.79502 -1.18564,-6.098232 0,-3.303212 1.18564,-6.055888 1.18565,-2.795026 3.34521,-4.827772 2.15958,-2.075095 5.08134,-3.218513 2.92177,-1.14342 6.35168,-1.14342 3.47224,0 6.35166,1.14342 2.92178,1.143418 5.08134,3.218513 2.15957,2.032746 3.34521,4.827772 1.18564,2.752676 1.18564,6.055888 0,3.303212 -1.18564,6.098232 -1.18564,2.79503 -3.34521,4.82778 -2.15956,2.03274 -5.08134,3.17616 -2.87942,1.14342 -6.30932,1.14342 z m -0.0424,-4.82777 q 2.24426,0 4.14976,-0.76228 1.9055,-0.76228 3.30287,-2.15979 1.39736,-1.43986 2.15956,-3.30322 0.80455,-1.90569 0.80455,-4.192532 0,-2.286839 -0.80455,-4.15019 -0.7622,-1.905698 -2.15956,-3.303212 -1.39737,-1.439861 -3.30287,-2.202141 -1.9055,-0.762279 -4.14976,-0.762279 -2.24426,0 -4.14976,0.762279 -1.86316,0.76228 -3.30286,2.202141 -1.39738,1.397514 -2.20192,3.303212 -0.7622,1.863351 -0.7622,4.15019 0,2.244492 0.7622,4.150192 0.80454,1.9057 2.20192,3.34556 1.39736,1.39751 3.30286,2.15979 1.9055,0.76228 4.14976,0.76228 z" />
      <path
         d="m 329.04501,114.32551 q -3.38756,0 -6.30934,-1.10107 -2.87941,-1.14342 -5.03898,-3.17617 -2.11723,-2.07509 -3.30287,-4.87012 -1.18565,-2.79502 -1.18565,-6.098232 0,-3.303212 1.18565,-6.098238 1.18564,-2.795025 3.34523,-4.82777 2.15956,-2.075095 5.03897,-3.176165 2.87943,-1.14342 6.30933,-1.14342 3.64162,0 6.64808,1.270466 3.00646,1.228118 5.08134,3.684351 l -3.55694,3.345561 q -1.60909,-1.736304 -3.59928,-2.583281 -1.9902,-0.889326 -4.31913,-0.889326 -2.32895,0 -4.2768,0.762279 -1.90549,0.76228 -3.34521,2.159792 -1.39736,1.397513 -2.20191,3.303212 -0.7622,1.9057 -0.7622,4.192539 0,2.286842 0.7622,4.192532 0.80455,1.9057 2.20191,3.30322 1.43972,1.39751 3.34521,2.15979 1.94785,0.76228 4.2768,0.76228 2.32893,0 4.31913,-0.84698 1.99019,-0.88933 3.59928,-2.66798 l 3.55694,3.38791 q -2.07488,2.41389 -5.08134,3.68435 -3.00645,1.27047 -6.69042,1.27047 z" />
      <path
         d="m 452.97256,72.901862 q -3.47242,0 -6.39434,-1.14336 -2.92192,-1.14336 -5.0816,-3.176 -2.15968,-2.074986 -3.34539,-4.82752 -1.18571,-2.79488 -1.18571,-6.097919 0,-3.30304 1.18571,-6.055574 1.18571,-2.79488 3.34539,-4.827519 2.15968,-2.074987 5.0816,-3.218347 2.92192,-1.14336 6.352,-1.14336 3.47242,0 6.352,1.14336 2.92192,1.14336 5.0816,3.218347 2.15968,2.032639 3.34538,4.827519 1.18571,2.752534 1.18571,6.055574 0,3.303039 -1.18571,6.097919 -1.1857,2.79488 -3.34538,4.82752 -2.15968,2.03264 -5.0816,3.176 -2.87958,1.14336 -6.30966,1.14336 z m -0.0424,-4.82752 q 2.24438,0 4.14998,-0.76224 1.9056,-0.76224 3.30304,-2.15968 1.39744,-1.439786 2.15968,-3.30304 0.80458,-1.905599 0.80458,-4.192319 0,-2.28672 -0.80458,-4.149974 -0.76224,-1.9056 -2.15968,-3.30304 -1.39744,-1.439786 -3.30304,-2.202026 -1.9056,-0.76224 -4.14998,-0.76224 -2.24437,0 -4.14997,0.76224 -1.86325,0.76224 -3.30304,2.202026 -1.39744,1.39744 -2.20203,3.30304 -0.76224,1.863254 -0.76224,4.149974 0,2.244373 0.76224,4.149973 0.80459,1.9056 2.20203,3.345386 1.39744,1.39744 3.30304,2.15968 1.9056,0.76224 4.14997,0.76224 z" />
      <path
         d="M 396.43976,72.478396 V 42.83573 h 12.19584 q 3.93824,0 6.73312,1.2704 2.83723,1.2704 4.36171,3.641813 1.52448,2.371413 1.52448,5.632106 0,3.260694 -1.52448,5.632107 -1.52448,2.329066 -4.36171,3.599466 -2.79488,1.228054 -6.73312,1.228054 h -9.14688 l 2.45611,-2.498454 v 11.137174 z m 19.39478,0 -7.49536,-10.756054 h 5.88618 l 7.53771,10.756054 z m -13.88971,-10.54432 -2.45611,-2.625493 h 8.8928 q 3.64182,0 5.46272,-1.566827 1.86326,-1.566827 1.86326,-4.361707 0,-2.837226 -1.86326,-4.361706 -1.8209,-1.52448 -5.46272,-1.52448 h -8.8928 l 2.45611,-2.710187 z" />
      <path
         d="m 361.46144,55.158609 h 14.73664 v 4.531094 h -14.73664 z m 0.42347,12.704 h 16.72693 v 4.615787 h -22.232 V 42.83573 h 21.63915 v 4.615786 h -16.13408 z" />
      <path
         d="m 314.37199,72.478396 v -3.68416 l 19.1407,-23.37536 0.6352,2.074987 H 314.66842 V 42.83573 h 24.43403 v 3.68416 l -19.1407,23.375359 -0.67754,-2.074987 h 20.36874 v 4.658134 z" />
   </g>
   <path
      id="green_badge"
      style="fill:#fff"
      d="m 23.734571,9.0000043 c -8.105333,0 -14.7345707,6.6305707 -14.7345707,14.7345707 V 127.09864 c 0,8.10534 6.6292377,14.73457 14.7345707,14.73457 H 243.78106 c 8.104,0 14.73516,-6.63057 14.73516,-14.73457 v -24.34687 c 0,-2.69601 1.07032,-5.28263 2.97832,-7.19063 l 12.12832,-12.127734 c 3.38667,-3.385335 3.37709,-8.876115 -0.0176,-12.250783 L 261.51622,59.159772 c -1.92,-1.908 -3,-4.505052 -3,-7.211718 V 23.734575 c 0,-8.104 -6.63116,-14.7345707 -14.73516,-14.7345707 z M 167.57344,31.463678 c 7.44667,0 14.20688,1.256061 20.27754,3.764061 2.632,1.088001 5.08275,2.388849 7.34942,3.903516 4.80533,3.209334 5.06012,10.281271 0.42011,13.935937 -2.97733,2.345334 -7.22163,2.377851 -10.34296,0.228516 -4.91334,-3.384 -10.49187,-5.075976 -16.73321,-5.075976 -5.424,0 -10.24005,1.134438 -14.44804,3.398439 -4.21067,2.269332 -7.48814,5.464221 -9.83614,9.593553 -2.348,4.128 -3.5209,8.863551 -3.5209,14.204884 0,5.262666 1.1729,9.957351 3.5209,14.085351 2.348,4.128 5.60586,7.346655 9.7752,9.653322 4.168,2.306669 8.92374,3.459959 14.2664,3.459959 3.10534,0 6.04131,-0.3652 8.80664,-1.09453 2.94134,-0.776 5.18537,-2.993344 6.0627,-5.777344 0.30933,-0.986667 -0.44658,-1.991601 -1.48125,-1.991601 -5.64933,0 -10.18571,-4.761453 -9.81504,-10.489452 0.33867,-5.226669 4.91211,-9.179884 10.15078,-9.179884 h 9.71074 c 0.0867,0 0.17072,0.01023 0.25606,0.0129 0.0867,-0.0027 0.17072,-0.0129 0.25605,-0.0129 h 0.67442 c 4.77733,0 8.64844,3.871852 8.64844,8.647852 v 12.062694 c 0,9.916005 -6.37351,18.792905 -15.84551,21.728905 -0.06,0.0187 -0.12164,0.0376 -0.18164,0.0563 -6.072,1.86133 -12.18391,2.79317 -18.33458,2.79317 -8.82399,0 -16.75577,-1.88135 -23.79843,-5.64668 -7.04267,-3.764 -12.56658,-8.98403 -16.57324,-15.662698 -4.00667,-6.678666 -6.01055,-14.225313 -6.01055,-22.645314 0,-8.417335 2.00388,-15.966223 6.01055,-22.643554 4.00666,-6.678669 9.57036,-11.900032 16.6957,-15.662698 7.12,-3.763998 15.13451,-5.646678 24.03984,-5.646678 z M 42.631642,32.920319 h 1.957032 c 2.911999,0 5.670649,1.305063 7.514647,3.558396 l 32.180275,39.300002 c 2.402667,2.936001 7.160157,1.236303 7.160157,-2.55703 V 42.633404 c 0,-5.365335 4.347753,-9.713085 9.713087,-9.713085 5.36533,0 9.71484,4.34775 9.71484,9.713085 v 65.568166 c 0,5.364 -4.34951,9.71309 -9.71484,9.71309 h -1.841018 c -2.907999,0 -5.662869,-1.30236 -7.508202,-3.54903 L 59.502542,75.025789 c -2.405334,-2.929336 -7.157814,-1.228363 -7.157814,2.562303 v 30.613478 c 0,5.364 -4.347753,9.71309 -9.713086,9.71309 -5.364,0 -9.713085,-4.34909 -9.713085,-9.71309 V 42.633404 c 0,-5.365335 4.349085,-9.713085 9.713085,-9.713085 z m 182.129888,6e-4 c 5.432,0 9.83496,4.402374 9.83496,9.834375 v 65.323826 c 0,5.432 -4.40296,9.83497 -9.83496,9.83497 -5.432,0 -9.83437,-4.40297 -9.83437,-9.83497 V 42.755279 c 0,-5.432001 4.40237,-9.834375 9.83437,-9.834375 z" />
   <path
      id="text_ngi"
      style="fill:#000"
      d="m 167.55588,31.550701 c -8.90532,0 -16.91984,1.88268 -24.03984,5.646678 -7.12534,3.762668 -12.68904,8.98404 -16.69571,15.662693 -4.00666,6.677335 -6.01054,14.226228 -6.01054,22.643558 0,8.419995 2.00388,15.966654 6.01054,22.645313 4.00667,6.678657 9.53059,11.898697 16.57324,15.662697 7.04267,3.76533 14.97445,5.64668 23.79844,5.64668 6.15067,0 12.26257,-0.93183 18.33457,-2.79317 0.06,-0.0187 0.1216,-0.0376 0.18164,-0.0563 9.47199,-2.936 15.84551,-11.81292 15.84551,-21.728909 V 82.817325 c 0,-4.775994 -3.87111,-8.647852 -8.64844,-8.647852 h -0.67441 c -0.0853,0 -0.16939,0.01027 -0.25606,0.01293 -0.0853,-0.0027 -0.16938,-0.01293 -0.25605,-0.01293 h -9.71075 c -5.23865,0 -9.8121,3.953218 -10.15077,9.179882 -0.37067,5.727995 4.16571,10.489453 9.81504,10.489453 1.03467,0 1.79057,1.004936 1.48124,1.991603 -0.87732,2.783997 -3.12136,5.001349 -6.06269,5.777349 -2.76532,0.72932 -5.70131,1.09452 -8.80664,1.09452 -5.34266,0 -10.09842,-1.15329 -14.2664,-3.459956 -4.16934,-2.306665 -7.4272,-5.525324 -9.7752,-9.65332 -2.348,-4.127995 -3.5209,-8.822689 -3.5209,-14.085351 0,-5.341327 1.1729,-10.076887 3.5209,-14.204875 2.348,-4.129331 5.62546,-7.324225 9.83613,-9.593559 4.208,-2.264 9.02405,-3.39844 14.44805,-3.39844 6.24132,0 11.81987,1.691986 16.7332,5.075988 3.12134,2.14932 7.36564,2.116812 10.34298,-0.22852 4.63998,-3.654668 4.3852,-10.726601 -0.42012,-13.935947 -2.26667,-1.514654 -4.71743,-2.815506 -7.34942,-3.903506 -6.07066,-2.508 -12.83088,-3.764067 -20.27754,-3.764067 z m -124.941801,1.45664 c -5.363986,0 -9.71308,4.347746 -9.71308,9.713093 v 65.568156 c 0,5.36398 4.349094,9.71309 9.71308,9.71309 5.365333,0 9.713093,-4.34911 9.713093,-9.71309 V 77.675114 c 0,-3.790661 4.75248,-5.491629 7.157813,-2.562304 l 32.30508,39.33984 c 1.845333,2.24667 4.600199,3.54903 7.508199,3.54903 h 1.841016 c 5.36533,0 9.71484,-4.34911 9.71484,-9.71309 V 42.720434 c 0,-5.365347 -4.34951,-9.713093 -9.71484,-9.713093 -5.365322,0 -9.713082,4.347746 -9.713082,9.713093 v 30.588274 c 0,3.793329 -4.757493,5.49303 -7.16016,2.557033 L 52.085772,36.565739 c -1.844,-2.253332 -4.602666,-3.558398 -7.514653,-3.558398 z m 182.129891,5.86e-4 c -5.432,0 -9.83439,4.402372 -9.83439,9.834372 v 65.323831 c 0,5.432 4.40239,9.83496 9.83439,9.83496 5.432,0 9.83496,-4.40296 9.83496,-9.83496 V 42.842299 c 0,-5.432 -4.40296,-9.834372 -9.83496,-9.834372 z" />
</svg>